<?xml version="1.0" encoding="UTF-8" standalone="no"?>
<svg
   xmlns:dc="http://purl.org/dc/elements/1.1/"
   xmlns:cc="http://creativecommons.org/ns#"
   xmlns:rdf="http://www.w3.org/1999/02/22-rdf-syntax-ns#"
   xmlns:svg="http://www.w3.org/2000/svg"
   xmlns="http://www.w3.org/2000/svg"
   xmlns:sodipodi="http://sodipodi.sourceforge.net/DTD/sodipodi-0.dtd"
   xmlns:inkscape="http://www.inkscape.org/namespaces/inkscape"
   version="1.1"
   id="Capa_1"
   x="0px"
   y="0px"
   width="630.22382"
   height="422.6655"
   viewBox="0 0 630.22382 422.6655"
   xml:space="preserve"
   sodipodi:docname="air6 by tsaoja.svg"
   inkscape:version="1.0.1 (3bc2e813f5, 2020-09-07)"><metadata
   id="metadata41"><rdf:RDF><cc:Work
       rdf:about=""><dc:format>image/svg+xml</dc:format><dc:type
         rdf:resource="http://purl.org/dc/dcmitype/StillImage" /></cc:Work></rdf:RDF></metadata><defs
   id="defs39" /><sodipodi:namedview
   pagecolor="#ffffff"
   bordercolor="#666666"
   borderopacity="1"
   objecttolerance="10"
   gridtolerance="10"
   guidetolerance="10"
   inkscape:pageopacity="0"
   inkscape:pageshadow="2"
   inkscape:window-width="1920"
   inkscape:window-height="1017"
   id="namedview37"
   showgrid="false"
   inkscape:zoom="1.3888889"
   inkscape:cx="303.5673"
   inkscape:cy="162.29902"
   inkscape:window-x="-8"
   inkscape:window-y="-8"
   inkscape:window-maximized="1"
   inkscape:current-layer="Capa_1" />
<g
   id="g4"
   transform="rotate(18,578.32934,253.83249)">
	<path
   d="m 612,195.722 c 0,105.87 -510.374,222.727 -549.02,222.727 -21.667,0 -46.25,-4.994 -46.25,-24.969 0,-6.674 7.703,-16.32 21.22,-27.949 l -0.015,0.008 -35.826,-63.656 c -4.851,-8.618 -1.005,-19.536 8.175,-23.212 l 6.157,-2.465 c 11.159,-4.468 23.718,-3.802 34.341,1.821 l 65.039,34.432 c 25.323,-15.02 54.049,-30.746 84.326,-46.229 L 73.402,184.001 c -10.027,-6.506 -9.92,-21.22 0.201,-27.578 l 10.368,-6.514 c 17.256,-10.841 38.234,-14.043 57.938,-8.846 l 210.85,55.616 c 65.742,-26.094 125.181,-43.904 160.363,-43.904 9.396,0 18.806,0.249 27.887,0.898 l -63.675,28.745 -1.524,21.418 98.29,-45.183 c 23.561,5.619 37.9,16.106 37.9,37.069 z M 355.492,378.476 434.14,467.82 c 4.793,5.445 12.599,7.084 19.176,4.027 l 10.533,-4.896 c 19.208,-8.928 30.521,-29.172 28.061,-50.209 l -9.846,-84.186 c -0.61,-5.209 -5.896,-8.506 -10.843,-6.764 l -112.308,39.562 c -5.466,1.927 -7.252,8.771 -3.421,13.122 z"
   id="path2" />
</g>
<g
   id="g6"
   transform="rotate(18,578.32934,253.83249)">
</g>
<g
   id="g8"
   transform="rotate(18,578.32934,253.83249)">
</g>
<g
   id="g10"
   transform="rotate(18,578.32934,253.83249)">
</g>
<g
   id="g12"
   transform="rotate(18,578.32934,253.83249)">
</g>
<g
   id="g14"
   transform="rotate(18,578.32934,253.83249)">
</g>
<g
   id="g16"
   transform="rotate(18,578.32934,253.83249)">
</g>
<g
   id="g18"
   transform="rotate(18,578.32934,253.83249)">
</g>
<g
   id="g20"
   transform="rotate(18,578.32934,253.83249)">
</g>
<g
   id="g22"
   transform="rotate(18,578.32934,253.83249)">
</g>
<g
   id="g24"
   transform="rotate(18,578.32934,253.83249)">
</g>
<g
   id="g26"
   transform="rotate(18,578.32934,253.83249)">
</g>
<g
   id="g28"
   transform="rotate(18,578.32934,253.83249)">
</g>
<g
   id="g30"
   transform="rotate(18,578.32934,253.83249)">
</g>
<g
   id="g32"
   transform="rotate(18,578.32934,253.83249)">
</g>
<g
   id="g34"
   transform="rotate(18,578.32934,253.83249)">
</g>
</svg>
