<svg height="422.666" viewBox="0 0 630.224 422.666" width="630.224" xmlns="http://www.w3.org/2000/svg"><path d="m612 195.722c0 105.87-510.374 222.727-549.02 222.727-21.667 0-46.25-4.994-46.25-24.969 0-6.674 7.703-16.32 21.22-27.949l-.015.008-35.826-63.656c-4.851-8.618-1.005-19.536 8.175-23.212l6.157-2.465c11.159-4.468 23.718-3.802 34.341 1.821l65.039 34.432c25.323-15.02 54.049-30.746 84.326-46.229l-126.745-82.229c-10.027-6.506-9.92-21.22.201-27.578l10.368-6.514c17.256-10.841 38.234-14.043 57.938-8.846l210.85 55.616c65.742-26.094 125.181-43.904 160.363-43.904 9.396 0 18.806.249 27.887.898l-63.675 28.745-1.524 21.418 98.29-45.183c23.561 5.619 37.9 16.106 37.9 37.069zm-256.508 182.754 78.648 89.344c4.793 5.445 12.599 7.084 19.176 4.027l10.533-4.896c19.208-8.928 30.521-29.172 28.061-50.209l-9.846-84.186c-.61-5.209-5.896-8.506-10.843-6.764l-112.308 39.562c-5.466 1.927-7.252 8.771-3.421 13.122z" transform="matrix(.95105652 .30901699 -.30901699 .95105652 106.744006 -166.290148)"/></svg>